<svg width="44" height="44" viewBox="0 0 44 44" fill="none" xmlns="http://www.w3.org/2000/svg">
<g filter="url(#filter0_b_574_15117)">
<g clip-path="url(#clip0_574_15117)">
<rect x="2" y="2" width="39.4555" height="39.4555" rx="7.89117" fill="black"/>
<path d="M9.24642 28.6567C9.19199 28.8199 9.24642 28.9288 9.24642 28.9288C9.24642 28.9288 9.30085 28.9832 9.46413 29.0377C9.62742 29.0921 9.95538 29.1465 10.3364 29.0921C11.0998 29.0377 12.1897 28.8199 13.5532 28.4376C15.0255 27.9463 16.77 27.2932 18.6778 26.3665C18.6778 26.5842 18.7322 26.8578 18.7322 27.0755C13.4988 29.5289 9.35528 30.51 8.64632 29.2568C7.71965 27.6211 12.8442 22.9334 20.1487 18.681C21.5666 17.8632 22.9831 17.0998 24.3466 16.4453C24.3466 16.663 24.4011 16.9366 24.4011 17.1543C23.1478 17.7544 21.8388 18.4633 20.4767 19.2253C16.8789 21.2964 13.7709 23.5321 11.7543 25.3854C10.7188 26.3121 10.0098 27.1299 9.57299 27.8389C9.35667 28.2198 9.24642 28.4376 9.24642 28.6567Z" fill="white"/>
<path d="M25.0575 16.8806C25.0575 16.6629 25.0031 16.3894 25.0031 16.1717C30.1821 13.7182 34.3256 12.7915 35.0345 14.0462C35.9612 15.6818 30.8366 20.3696 23.5321 24.6219C22.1142 25.4397 20.6977 26.2031 19.3342 26.8576C19.3342 26.6399 19.2798 26.3664 19.2798 26.1487C20.533 25.5486 21.8421 24.8396 23.2042 24.0776C26.802 22.0066 29.9099 19.7709 31.9266 17.9175C32.9621 16.9909 33.671 16.173 34.1065 15.4641C34.3242 15.1375 34.433 14.864 34.4875 14.7007C34.5419 14.5374 34.4875 14.4286 34.4875 14.4286C34.4875 14.4286 34.433 14.3741 34.2697 14.3197C34.1065 14.2653 33.7785 14.2109 33.3975 14.2653C32.6341 14.3197 31.5442 14.5374 30.1807 14.9198C28.7097 15.2994 26.9653 15.9539 25.0575 16.8806Z" fill="white"/>
<path d="M34.2177 29.0383C34.381 28.9839 34.4354 28.9295 34.4354 28.9295C34.4354 28.9295 34.4898 28.8751 34.4354 28.6573C34.381 28.4941 34.2721 28.2219 34.0544 27.894C33.619 27.2394 32.91 26.4216 31.8745 25.4405C30.7301 24.405 29.2578 23.2048 27.5133 22.0604C27.731 21.8971 27.8943 21.7883 28.1134 21.625C32.8012 24.8962 35.6914 28.0028 34.9825 29.2574C34.1102 30.7298 28.3856 29.0942 21.79 25.4963C22.0077 25.3875 22.2813 25.2242 22.499 25.1154C25.3334 26.6421 28.0046 27.7865 30.1314 28.441C31.4405 28.8764 32.5304 29.0956 33.3483 29.0956C33.7823 29.1472 34.0544 29.0928 34.2177 29.0383Z" fill="white"/>
<path d="M21.8433 24.7291C21.6256 24.8379 21.3521 25.0012 21.1344 25.1101C20.8078 24.9468 20.4798 24.7291 20.1533 24.5644C18.7354 23.7466 17.3733 22.8743 16.1187 22.0565C16.3364 21.8932 16.4996 21.7844 16.7188 21.6211C17.8631 22.3845 19.1722 23.2023 20.4798 23.9657C20.9167 24.2392 21.4065 24.5113 21.8433 24.7291Z" fill="white"/>
<path d="M16.1157 21.1886C15.898 21.3518 15.7347 21.4607 15.5156 21.624C10.8279 18.3527 7.93761 15.2462 8.64656 13.9915C9.57323 12.3559 16.279 14.4828 23.5291 18.6793C24.947 19.4971 26.3091 20.3693 27.5637 21.1872C27.346 21.3504 27.1827 21.4593 26.9636 21.6226C25.8192 20.8592 24.5102 20.0414 23.2025 19.278C19.6047 17.2083 16.1702 15.6285 13.499 14.8107C12.1899 14.3753 11.1 14.1562 10.2822 14.1562C9.8998 14.1562 9.62766 14.1562 9.40995 14.2106C9.24666 14.2651 9.19224 14.3195 9.19224 14.3195C9.19224 14.3195 9.13781 14.3739 9.19224 14.5916C9.24666 14.7549 9.35552 15.0271 9.57323 15.355C10.0087 16.0095 10.7176 16.8274 11.7531 17.8084C12.9003 18.844 14.3712 20.0442 16.1157 21.1886Z" fill="white"/>
<path d="M21.6224 7.17719C21.7313 7.06833 21.8401 7.06833 21.8401 7.06833C21.8401 7.06833 21.949 7.06833 22.0578 7.17719C22.2211 7.28604 22.3844 7.55958 22.5491 7.88614C22.9301 8.5951 23.258 9.63062 23.5846 10.9927C24.0759 13.1726 24.4024 16.0629 24.5113 19.2797C24.729 19.443 25.0025 19.5518 25.2202 19.7151C25.0025 12.1915 23.5846 6.35938 21.8401 6.35938C20.4222 6.35938 19.169 10.394 18.6777 16.1173C18.8954 16.2261 19.1132 16.335 19.3323 16.4439C19.4955 14.3728 19.7677 12.5195 20.0956 10.9927C20.4222 9.63062 20.7502 8.5937 21.1312 7.88614C21.2945 7.55818 21.4577 7.34047 21.6224 7.17719Z" fill="white"/>
<path d="M19.2792 17.2074C19.0615 17.0986 18.8438 16.9897 18.6247 16.8809C18.5159 18.3532 18.4614 19.9888 18.4614 21.6231H19.116C19.116 20.0977 19.1704 18.5709 19.2792 17.2074Z" fill="white"/>
<path d="M25.2177 23.5859C25.1633 24.567 25.1633 25.4937 25.0544 26.4204C24.8367 26.3115 24.619 26.2027 24.3999 26.0938C24.4543 25.4393 24.4543 24.7303 24.5088 24.0228C24.7265 23.8581 24.9442 23.6948 25.2177 23.5859Z" fill="white"/>
<path d="M25.2207 20.4784C25.003 20.3151 24.7853 20.2063 24.5117 20.043C24.5117 20.5342 24.5117 21.0785 24.5117 21.5697H25.1662C25.2207 21.2418 25.2207 20.8608 25.2207 20.4784Z" fill="white"/>
<path d="M25.2207 22.7671C25.003 22.9304 24.7853 23.0393 24.5117 23.2025C24.5117 22.7113 24.5117 22.167 24.5117 21.6758H25.1662C25.2207 22.0037 25.2207 22.3847 25.2207 22.7671Z" fill="white"/>
<path d="M24.3494 26.8015C24.5671 26.9104 24.7848 27.0192 25.0039 27.1281C24.5127 32.7969 23.2594 36.886 21.8415 36.886C19.9882 36.886 18.4614 30.0713 18.4614 21.6211H19.116C19.116 25.819 19.4969 29.5801 20.0971 32.2512C20.4236 33.6147 20.7516 34.6503 21.1326 35.3592C21.2959 35.6858 21.4591 35.9593 21.6238 36.0682C21.7871 36.177 21.8415 36.177 21.8415 36.177C21.8415 36.177 21.9504 36.177 22.0592 36.0682C22.2225 35.9593 22.3858 35.6858 22.5505 35.3592C22.9315 34.6503 23.2594 33.6147 23.586 32.2512C23.9126 30.7273 24.1861 28.8739 24.3494 26.8015Z" fill="white"/>
<path fill-rule="evenodd" clip-rule="evenodd" d="M28.4377 15.2985C28.7099 15.7897 29.3644 16.0074 29.9101 15.6795C30.4013 15.4073 30.619 14.7528 30.2911 14.2071C30.0189 13.7159 29.3644 13.4982 28.8187 13.8261C28.3289 14.0997 28.1656 14.7542 28.4377 15.2985Z" fill="white"/>
<path fill-rule="evenodd" clip-rule="evenodd" d="M13.0645 19.0624C13.3366 18.5712 13.1734 17.918 12.6835 17.5901C12.1923 17.3179 11.5391 17.4812 11.2112 17.9711C10.939 18.4623 11.1023 19.1155 11.5922 19.4434C12.0834 19.77 12.7365 19.5523 13.0645 19.0624Z" fill="white"/>
<path fill-rule="evenodd" clip-rule="evenodd" d="M19.6603 30.5098C20.2604 30.5098 20.7502 31.001 20.7502 31.5997C20.7502 32.1998 20.259 32.6897 19.6603 32.6897C19.0616 32.6897 18.5703 32.1984 18.5703 31.5997C18.5703 30.9996 19.0616 30.5098 19.6603 30.5098Z" fill="white"/>
<path fill-rule="evenodd" clip-rule="evenodd" d="M21.8404 19.8242C22.8215 19.8242 23.6393 20.642 23.6393 21.6231C23.6393 22.6042 22.8215 23.422 21.8404 23.422C20.8593 23.422 20.0415 22.6042 20.0415 21.6231C20.0415 20.5876 20.8049 19.8242 21.8404 19.8242Z" fill="white"/>
</g>
<rect x="1" y="1" width="41.4555" height="41.4555" rx="8.89117" stroke="white" stroke-width="2"/>
</g>
<defs>
<filter id="filter0_b_574_15117" x="-4.93194" y="-4.93194" width="53.3194" height="53.319" filterUnits="userSpaceOnUse" color-interpolation-filters="sRGB">
<feFlood flood-opacity="0" result="BackgroundImageFix"/>
<feGaussianBlur in="BackgroundImageFix" stdDeviation="2.46597"/>
<feComposite in2="SourceAlpha" operator="in" result="effect1_backgroundBlur_574_15117"/>
<feBlend mode="normal" in="SourceGraphic" in2="effect1_backgroundBlur_574_15117" result="shape"/>
</filter>
<clipPath id="clip0_574_15117">
<rect x="2" y="2" width="39.4555" height="39.4555" rx="7.89117" fill="white"/>
</clipPath>
</defs>
</svg>
